<?xml version="1.0" standalone="no"?><!DOCTYPE svg PUBLIC "-//W3C//DTD SVG 1.1//EN" "http://www.w3.org/Graphics/SVG/1.1/DTD/svg11.dtd"><svg t="1590308460626" class="icon" viewBox="0 0 1024 1024" version="1.1" xmlns="http://www.w3.org/2000/svg" p-id="681" width="32" height="32" xmlns:xlink="http://www.w3.org/1999/xlink"><defs><style type="text/css"></style></defs><path d="M512 64.981333c-212.053333 0-384 172.074667-384 384.341334 0 262.826667 319.317333 472.405333 375.594667 507.306666a15.957333 15.957333 0 0 0 16.810666 0C576.682667 921.685333 896 712.106667 896 449.28c0-212.266667-171.946667-384.341333-384-384.341333m0 64.085333a318.976 318.976 0 0 1 226.261333 93.781333 319.274667 319.274667 0 0 1 93.738667 226.474667c0 49.664-14.506667 101.76-43.093333 154.794667-24.874667 46.08-60.373333 93.141333-105.557334 139.733333-63.957333 65.962667-132.309333 115.754667-171.349333 141.952-39.04-26.197333-107.392-75.946667-171.349333-141.952-45.226667-46.592-80.682667-93.610667-105.557334-139.733333-28.586667-53.034667-43.093333-105.130667-43.093333-154.794667a319.274667 319.274667 0 0 1 93.738667-226.474667A318.976 318.976 0 0 1 512 129.066667" p-id="682" fill="#ffffff"></path><path d="M512 304.981333a144 144 0 1 0 0 288 144 144 0 0 0 0-288m0 64c44.117333 0 80 35.925333 80 80A80.085333 80.085333 0 0 1 512 528.981333a80.085333 80.085333 0 0 1-80-80c0-44.074667 35.882667-80 80-80" p-id="683" fill="#ffffff"></path></svg>