<?xml version="1.0" standalone="no"?><!DOCTYPE svg PUBLIC "-//W3C//DTD SVG 1.1//EN" "http://www.w3.org/Graphics/SVG/1.1/DTD/svg11.dtd"><svg t="1590307985178" class="icon" viewBox="0 0 1024 1024" version="1.1" xmlns="http://www.w3.org/2000/svg" p-id="1878" width="32" height="32" xmlns:xlink="http://www.w3.org/1999/xlink"><defs><style type="text/css"></style></defs><path d="M853.32992 136.52992h-102.4V102.4h-68.25984v34.12992H341.32992V102.4h-68.25984v34.12992h-102.4C133.13024 136.52992 102.4 167.23968 102.4 204.8v648.52992C102.4 890.86976 133.13024 921.6 170.67008 921.6h682.65984C890.86976 921.6 921.6 890.86976 921.6 853.32992V204.8c0-37.56032-30.73024-68.27008-68.27008-68.27008z m0 716.8H170.67008v-512h682.65984v512z m0-580.25984H170.67008V204.8h682.65984v68.27008z" p-id="1879" fill="#ffffff"></path><path d="M580.1984 705.1264a34.2016 34.2016 0 0 1 10.02496-24.12544l-0.03072-0.07168 96.57344-96.53248a102.08256 102.08256 0 0 0 30.0032-72.3968h-0.04096H716.8c0-56.53504-45.86496-102.4-102.4-102.4s-102.4 45.86496-102.4 102.4h68.27008c0-18.86208 15.2576-34.12992 34.12992-34.12992s34.12992 15.26784 34.12992 34.12992h-0.03072c0 9.472-3.79904 17.94048-9.97376 24.13568l-96.5632 96.60416a101.87776 101.87776 0 0 0-29.97248 72.38656v79.94368h204.8V716.8H580.1984v-11.6736zM307.2 409.6v68.27008h68.27008v307.2h68.25984V409.6z" p-id="1880" fill="#ffffff"></path></svg>