<?xml version="1.0" standalone="no"?><!DOCTYPE svg PUBLIC "-//W3C//DTD SVG 1.1//EN" "http://www.w3.org/Graphics/SVG/1.1/DTD/svg11.dtd"><svg t="1590308469585" class="icon" viewBox="0 0 1024 1024" version="1.1" xmlns="http://www.w3.org/2000/svg" p-id="934" width="32" height="32" xmlns:xlink="http://www.w3.org/1999/xlink"><defs><style type="text/css"></style></defs><path d="M874.666667 375.189333V746.666667a64 64 0 0 1-64 64H213.333333a64 64 0 0 1-64-64V375.189333l64 54.250667V746.666667h597.333334V429.44l64-54.250667zM810.666667 213.333333a64.789333 64.789333 0 0 1 22.826666 4.181334 63.616 63.616 0 0 1 26.794667 19.413333 64.32 64.32 0 0 1 9.344 15.466667c2.773333 6.570667 4.48 13.696 4.906667 21.184L874.666667 277.333333v21.333334L553.536 572.586667a64 64 0 0 1-79.893333 2.538666l-3.178667-2.56L149.333333 298.666667v-21.333334a63.786667 63.786667 0 0 1 35.136-57.130666A63.872 63.872 0 0 1 213.333333 213.333333h597.333334z m-9.6 64h-578.133334L512 523.882667 801.066667 277.333333z" p-id="935" fill="#ffffff"></path></svg>