<svg t="1567224129098" class="icon" viewBox="0 0 1024 1024" version="1.1" xmlns="http://www.w3.org/2000/svg" p-id="1604" width="200" height="200"><path d="M512 967.111c170.667-68.267 284.444-164.978 341.333-284.444 73.956-142.223 91.023-307.2 56.89-500.623L512 56.89 113.778 187.733c-34.134 187.734-17.067 352.711 51.2 494.934C227.556 802.133 341.333 898.844 512 967.11z m-295.822-307.2c-62.578-125.155-79.645-267.378-51.2-432.355L512 113.778l347.022 113.778c22.756 164.977 5.69 307.2-56.889 426.666-51.2 102.4-147.91 182.045-290.133 244.622-147.911-56.888-244.622-142.222-295.822-238.933z" fill="#73777A" p-id="1605"></path><path d="M512 631.467L318.578 438.044l45.51-39.822L512 546.133l204.8-204.8 45.511 39.823z" fill="#73777A" p-id="1606"></path></svg>