<svg t="1566819400255" class="icon" viewBox="0 0 1024 1024" version="1.1" xmlns="http://www.w3.org/2000/svg" p-id="1179" width="200" height="200"><path d="M650.9 443.59c108.15 0 195.82 80.32 195.82 179.41 0 38.51-13.25 74.17-35.79 103.4l40.92 80.6-100.17-30.22a208.34 208.34 0 0 1-100.78 25.64c-108.15 0-195.82-80.33-195.82-179.42s87.67-179.41 195.82-179.41z" fill="#FDD668" p-id="1180"></path><path d="M598.8 590.15c0.08-19.87-14.7-35.26-33.92-35.32-19-0.07-34.67 15.76-34.7 35s15.5 35.41 34.27 35.49c19.03 0.05 34.27-15.54 34.35-35.17z m109.36 0.62c0.37 19.56 16 35 35 34.51 18.73-0.45 34.08-16.94 33.61-36.11s-16.32-34.82-35.2-34.42-33.77 16.25-33.41 36.02zM356.31 392.79c0.08-19.88-14.7-35.27-33.93-35.33-18.95-0.06-34.66 15.76-34.69 35s15.49 35.41 34.27 35.49c19.04 0.05 34.27-15.54 34.35-35.16z m109.36 0.61c0.36 19.56 16 35 35 34.51 18.73-0.45 34.08-16.94 33.61-36.11s-16.33-34.82-35.2-34.42c-19.08 0.4-33.77 16.28-33.41 36.02z" p-id="1181"></path><path d="M894.64 785.26l-28.26-55.69A214 214 0 0 0 894.72 623c0-107.34-80.25-197.34-187.67-221.09-3.41-25.37-16.85-57.18-19-62.1C653.83 261.53 533.7 177.7 409.48 177.7c-174.18 0-315.87 130.75-315.87 291.46 0 55.89 17 109.65 49.28 156.37L63.14 782.61l193.59-58.39c59.8 30.49 129.41 42.18 197.88 33.11 44.42 56.32 115.75 93.09 196.3 93.09a258.38 258.38 0 0 0 105-22.21L838 853l107.47 32.4zM270.86 677.37L262 672.5l-105.23 31.73 42.43-83.61-9.25-12c-31.62-41-48.34-89.26-48.34-139.46 0-134.24 120.16-243.46 267.87-243.46 100.91 0 207.07 70.41 234.6 133.35 2.62 6 8.26 23 12.26 36.79-1.82 0-3.61-0.25-5.43-0.25-134.46 0-243.83 102-243.83 227.41a213.23 213.23 0 0 0 19.37 88.79c-54.59 3.13-108.98-8.74-155.59-34.42z m480.81 99.41a208.29 208.29 0 0 1-100.76 25.64c-108.16 0-195.83-80.33-195.83-179.42s87.67-179.41 195.83-179.41S846.72 523.91 846.72 623c0 38.51-13.25 74.17-35.78 103.4l40.9 80.6z" p-id="1182"></path></svg>