<?xml version="1.0" standalone="no"?><!DOCTYPE svg PUBLIC "-//W3C//DTD SVG 1.1//EN" "http://www.w3.org/Graphics/SVG/1.1/DTD/svg11.dtd"><svg t="1590855916724" class="icon" viewBox="0 0 1024 1024" version="1.1" xmlns="http://www.w3.org/2000/svg" p-id="1886" xmlns:xlink="http://www.w3.org/1999/xlink" width="24" height="24"><defs><style type="text/css"></style></defs><path d="M0 64m64 0l896 0q64 0 64 64l0 768q0 64-64 64l-896 0q-64 0-64-64l0-768q0-64 64-64Z" fill="#2A343E" p-id="1887"></path><path d="M94.4 198.912a40 40 0 1 0 0-80 40 40 0 0 0 0 80z" fill="#D15347" p-id="1888"></path><path d="M127.68 448V372.416L377.664 497.92v87.424l-249.984 128.64v-82.56l177.92-86.4h17.984L127.68 448z m571.904 253.312H448V625.92h251.52" fill="#EDF2F7" p-id="1889"></path><path d="M222.4 198.912a40 40 0 1 0 0-80 40 40 0 0 0 0 80z" fill="#D8A144" p-id="1890"></path><path d="M350.4 198.912a40 40 0 1 0 0-80 40 40 0 0 0 0 80z" fill="#62AD50" p-id="1891"></path></svg>