<?xml version="1.0" standalone="no"?><!DOCTYPE svg PUBLIC "-//W3C//DTD SVG 1.1//EN" "http://www.w3.org/Graphics/SVG/1.1/DTD/svg11.dtd"><svg t="1590893166055" class="icon" viewBox="0 0 1024 1024" version="1.1" xmlns="http://www.w3.org/2000/svg" p-id="60362" width="24" height="24" xmlns:xlink="http://www.w3.org/1999/xlink"><defs><style type="text/css"></style></defs><path d="M960 960H64V64h896v896z" p-id="60363"></path><path d="M932 932H92V92h840v840z" fill="#665948" p-id="60364"></path><path d="M529.6 587.264a93.44 93.44 0 0 1-25.6-16.544c-11.52-17.248-10.784-11.232-11.232-100.192-0.224-44.288-0.896-82.048-1.344-84.032-0.8-3.456-1.728-3.616-20.928-4.032-19.968-0.448-19.968-0.512-19.968-4.416 0-2.944 1.152-4.288 4.832-5.376a103.424 103.424 0 0 0 42.624-25.184 133.728 133.728 0 0 0 33.504-81.152 46.912 46.912 0 0 1 1.152-11.168c1.344-3.488 11.232-3.488 12.576 0 0.544 1.408 1.152 26.4 1.152 55.392v52.64h60.64l-0.384 9.44-0.576 9.216-29.824 0.576-29.824 0.384-0.192 82.496c-0.192 96-0.384 90.24 3.488 99.2a22.176 22.176 0 0 0 38.4 4.224c8.64-9.216 10.88-20.576 11.808-61.92l0.768-36.16h9.312v36.352a436.512 436.512 0 0 1-1.728 45.952 41.056 41.056 0 0 1-27.328 33.856 107.648 107.648 0 0 1-12.384 2.304 95.424 95.424 0 0 1-39.136-1.728zM186.912 243.2H275.84l164.864 0.576 0.384 66.944c0.416 64.192 0.416 66.976-2.528 67.904-5.792 1.824-8.512-0.704-8.512-7.872a216.032 216.032 0 0 0-7.36-42.88 317.312 317.312 0 0 0-17.632-36.928 121.184 121.184 0 0 0-32.736-31.744 104.992 104.992 0 0 0-55.2-8.256 167.552 167.552 0 0 0-60.448 6.72 10.912 10.912 0 0 0-4.256 5.376c-0.512 1.824-0.96 33.184-0.96 69.632a296.704 296.704 0 0 0 2.144 66.368 155.104 155.104 0 0 0 60.256-7.872c15.68-8.256 26.784-36.928 32-83.2 1.12-9.888 1.248-10.112 5.44-9.6l4.256 0.384 0.576 105.408 0.384 105.216h-9.952v-10.976a228.864 228.864 0 0 0-7.552-51.744 40.576 40.576 0 0 0-29.632-32A208.352 208.352 0 0 0 256 409.344l-4.448 1.152 0.192 76.8a406.912 406.912 0 0 0 2.336 79.808c3.52 4.576 14.912 7.2 36.224 8.256 10.72 0.544 25.184 1.376 32 1.92 12.032 0.928 12.8 1.12 12.8 4.8v4.032H222.752a615.744 615.744 0 0 1-113.12-2.496c-2.08-5.408 0.576-5.856 36.224-8.064a66.656 66.656 0 0 0 32.352-7.104c2.688-2.304 2.912-11.648 2.912-154.816V261.056l-4.064-2.688a160.896 160.896 0 0 0-51.2-7.296c-15.232 0-17.696-0.896-16-5.568A304.512 304.512 0 0 1 186.912 243.2z m618.368 113.856a80.64 80.64 0 0 1 12.192 1.152 64.896 64.896 0 0 1 47.456 35.968l4.832 10.592 0.96 83.2a739.2 739.2 0 0 0 2.72 85.024 65.152 65.152 0 0 0 18.016 3.456c8.928 0.928 17.728 2.112 19.744 2.496 4.224 0.8 4.992 4.704 1.152 6.144-4.8 1.824-277.248 1.056-278.4-0.768-2.176-3.52 2.816-6.4 11.232-6.4a76.8 76.8 0 0 0 32.736-6.912c2.336-2.336 2.72-12.224 2.72-93.472 0-95.776 0-97.28-7.36-101.152a94.464 94.464 0 0 0-20.544-2.88c-15.744-1.024-17.184-1.472-17.632-4.608s0.48-3.584 8.128-4.416c23.68-2.592 86.048-6.4 88.544-5.568s2.912 3.52 2.912 20.576a50.72 50.72 0 0 0 1.728 19.616 1.728 1.728 0 0 0 1.536-1.92 67.84 67.84 0 0 1 6.784-12.8 59.328 59.328 0 0 1 22.4-23.264 124.032 124.032 0 0 1 38.144-4.096z m-16 9.44c-20.704 0-38.144 19.52-47.648 52.896a276.096 276.096 0 0 0-6.4 92.8l0.384 60.192 6.016 1.92a129.728 129.728 0 0 0 57.92 1.92c18.784-2.784 17.312 5.152 17.248-85.792 0-43.456-0.896-84.512-1.728-90.976-2.88-21.344-11.872-33.056-25.856-32.992z" fill="#FFFFFF" p-id="60365"></path><path d="M922.4 723.264H101.6v-32h820.8v32z" fill="#D6534F" p-id="60366"></path></svg>