<?xml version="1.0" standalone="no"?><!DOCTYPE svg PUBLIC "-//W3C//DTD SVG 1.1//EN" "http://www.w3.org/Graphics/SVG/1.1/DTD/svg11.dtd"><svg t="1590893147568" class="icon" viewBox="0 0 1024 1024" version="1.1" xmlns="http://www.w3.org/2000/svg" p-id="59983" width="24" height="24" xmlns:xlink="http://www.w3.org/1999/xlink"><defs><style type="text/css"></style></defs><path d="M77.599 472.388c-1.994 0-2.492-0.996-1.495-2.491l10.462-13.449c0.996-1.495 3.488-2.492 5.478-2.492h177.852c1.99 0 2.491 1.495 1.491 2.99l-8.465 12.954c-1 1.492-3.488 2.987-4.983 2.987zM2.372 518.223c-1.99 0-2.491-0.997-1.491-2.492l10.462-13.449c0.993-1.498 3.485-2.491 5.478-2.491h227.167c1.994 0 2.99 1.491 2.492 2.986l-3.987 11.957c-0.498 1.993-2.491 2.99-4.481 2.99z m120.56 45.83c-1.99 0-2.493-1.495-1.496-2.99l6.977-12.452c0.997-1.495 2.99-2.99 4.983-2.99h99.636c1.99 0 2.986 1.495 2.986 3.489l-0.996 11.953c0 1.994-1.994 3.489-3.489 3.489z m517.106-100.632c-31.383 7.97-52.805 13.95-83.695 21.92-7.469 1.994-7.967 2.493-14.446-4.983-7.471-8.465-12.95-13.946-23.415-18.93-31.382-15.442-61.771-10.957-90.167 7.475-33.877 21.917-51.312 54.3-50.814 94.652 0.498 39.854 27.897 72.735 67.253 78.213 33.877 4.485 62.273-7.472 84.692-32.877 4.481-5.482 8.465-11.459 13.448-18.432h-96.147c-10.462 0-12.953-6.479-9.465-14.947 6.475-15.442 18.432-41.35 25.406-54.303 1.495-2.986 4.983-7.97 12.455-7.97H656.48c-0.997 13.449-0.997 26.904-2.99 40.352-5.479 35.871-18.93 68.748-40.851 97.642-35.868 47.33-82.695 76.722-141.981 84.692-48.821 6.475-94.154-2.99-134.008-32.88-36.864-27.898-57.787-64.762-63.27-110.593-6.474-54.306 9.466-103.123 42.347-145.968 35.368-46.329 82.2-75.72 139.489-86.186 46.83-8.465 91.665-2.987 132.017 24.412 26.402 17.435 45.333 41.35 57.788 70.246 2.99 4.482 0.997 6.97-4.983 8.465z" fill="#154097" p-id="59984"></path><path d="M804.932 738.915c-45.329-0.997-86.678-13.95-121.549-43.84-29.395-25.406-47.827-57.789-53.807-96.148-8.967-56.296 6.478-106.113 40.352-150.45 36.37-47.823 80.207-72.734 139.49-83.196 50.814-8.967 98.641-3.986 141.98 25.41 39.356 26.896 63.768 63.265 70.247 111.09 8.465 67.256-10.964 122.053-57.293 168.881-32.88 33.382-73.233 54.303-119.562 63.768-13.449 2.492-26.9 2.99-39.854 4.485z m118.57-201.264c-0.5-6.478-0.5-11.458-1.496-16.442-8.967-49.32-54.3-77.216-101.628-66.253-46.33 10.459-76.22 39.851-87.177 86.679-8.97 38.86 9.96 78.216 45.827 94.156 27.403 11.957 54.802 10.462 81.204-2.99 39.355-20.425 60.777-52.306 63.27-95.15z" fill="#154097" p-id="59985"></path></svg>