<?xml version="1.0" standalone="no"?><!DOCTYPE svg PUBLIC "-//W3C//DTD SVG 1.1//EN" "http://www.w3.org/Graphics/SVG/1.1/DTD/svg11.dtd"><svg t="1590902510142" class="icon" viewBox="0 0 1024 1024" version="1.1" xmlns="http://www.w3.org/2000/svg" p-id="93865" xmlns:xlink="http://www.w3.org/1999/xlink" width="24" height="24"><defs><style type="text/css"></style></defs><path d="M493.77 533.97C346.74 238.02 685.65 358.25 602.11 63.71c34.68 183.56-439.81 215.93-108.34 470.26zM687 250.36c-322.92 92.48-108.54 245.07-121.15 309.81 140.3-70.9-132.41-215.79 121.15-309.81z m44.37 329.85c-83.2 71.71-575.38 81.69-362.56-30.82-413.01 104.81 293.2 235.82 362.56 30.82zM392.15 728.93c-113.2 94.82 231.89 136.35 280.89 0-99.31 40.08-260.1 65.52-280.89 0z m-153.08 76.83c-494.51 154.18 558.5 241.48 677.17 24.66-133.82 71.7-856.4 129.53-677.17-24.66z m517.52-88.37c212.82-77.07 72.52-260.49-25.22-157.22 97.73-10.79 119.81 69.36 25.22 157.22z" fill="#A8211E" p-id="93866"></path></svg>