<?xml version="1.0" standalone="no"?><!DOCTYPE svg PUBLIC "-//W3C//DTD SVG 1.1//EN" "http://www.w3.org/Graphics/SVG/1.1/DTD/svg11.dtd"><svg t="1590854345184" class="icon" viewBox="0 0 1024 1024" version="1.1" xmlns="http://www.w3.org/2000/svg" p-id="2473" xmlns:xlink="http://www.w3.org/1999/xlink" width="24" height="24"><defs><style type="text/css"></style></defs><path d="M92.842667 120.021333c9.941333 17.92 20.352 33.237333 31.146666 46.506667h-0.085333a98.688 98.688 0 0 0-15.232-1.109333 115.285333 115.285333 0 0 0-33.749333 5.546666c21.077333 17.706667 38.912 30.592 54.656 40.533334 38.613333 12.544 81.578667 33.365333 118.186666 56.661333 18.304 11.648 34.645333 23.168 47.488 33.28 12.842667 10.069333 24.192 20.096 26.496 24.490667 2.304 4.352-0.042667 5.930667-3.498666 2.56-3.456-3.328-12.885333-13.610667-25.6-23.594667a605.994667 605.994667 0 0 0-47.232-33.066667c-33.066667-20.906667-84.565333-40.96-115.84-60.330666-24.32-7.765333-50.432-8.832-81.152 5.76 22.442667 14.08 41.258667 24.234667 57.728 31.829333 47.104 6.613333 96.384 29.653333 137.6 55.808 20.608 13.141333 38.613333 26.282667 52.053333 37.034667 6.741333 5.333333 12.373333 10.112 16.64 13.994666 4.181333 3.84 7.509333 6.613333 8.448 8.96 1.28 3.157333-0.853333 4.437333-3.626667 2.432-1.365333-0.938667-3.626667-4.352-7.765333-8.149333a318.933333 318.933333 0 0 0-16.426667-13.909333c-13.312-10.666667-31.146667-23.594667-51.626666-36.608-38.144-23.936-95.274667-43.178667-135.466667-59.562667-25.642667-4.693333-52.181333-2.56-81.237333 16.597333 19.157333 8.533333 35.712 14.933333 50.432 19.797334-24.149333 0.853333-48.128 8.405333-71.509334 30.592 20.352 5.034667 37.76 8.448 53.077334 10.666666-18.773333 3.84-37.12 12.8-54.997334 30.72 13.824 2.986667 26.282667 5.248 37.674667 6.954667-14.037333 6.784-27.306667 17.322667-39.424 33.408 15.914667 1.28 29.994667 1.792 42.666667 1.834667-15.36 7.082667-29.696 18.261333-42.496 36.266666 22.741333 1.109333 41.770667 1.024 58.154666 0.085334-18.005333 7.338667-34.645333 19.797333-48.810666 41.344a497.493333 497.493333 0 0 0 69.504-3.285334l-0.341334 0.085334c42.24-3.114667 98.133333 5.418667 126.506667 36.181333 2.218667 2.432-1.024 5.034667-3.114667 3.157333-27.648-24.746667-63.744-35.285333-123.392-39.338666-23.210667 6.4-44.672 19.072-62.336 45.866666 22.826667 0.298667 41.856-0.469333 58.24-2.005333-20.053333 10.88-37.162667 27.434667-48.512 55.637333 20.608-3.882667 37.888-8.106667 52.778667-12.501333-15.488 11.306667-28.544 27.136-37.248 50.944 13.824-3.072 26.069333-6.229333 37.12-9.429333a107.52 107.52 0 0 0-21.888 46.762666c14.976-5.546667 27.946667-10.922667 39.509333-16.213333h0.085334c12.074667-9.813333 30.293333-19.498667 54.997333-26.538667 21.589333-6.186667 46.165333-12.117333 70.485333-12.842666a154.88 154.88 0 0 1 10.410667 0c4.266667 0.128 2.688 4.437333 0.256 4.394666-31.061333-0.341333-55.552 5.632-79.914667 12.586667a418.133333 418.133333 0 0 0-56.234666 22.442667 106.666667 106.666667 0 0 0-23.509334 50.816c21.12-8.448 38.357333-16.554667 52.821334-24.234667-13.269333 14.208-23.168 32.426667-27.093334 57.898667a503.210667 503.210667 0 0 0 61.525334-31.744c-18.432 15.445333-32.597333 36.010667-37.504 67.754666a461.226667 461.226667 0 0 0 75.349333-40.832c-7.850667 15.872-11.989333 34.432-10.026667 57.6 32.512-24.96 53.12-45.056 68.437334-62.848a113.92 113.92 0 0 0 3.242666 37.76c19.157333-32.938667 38.272-46.634667 57.728-57.941333-24.021333 15.786667-19.797333 28.629333-19.797333 43.264 29.141333-30.72 69.802667-63.274667 82.218667-83.669333-16.64 24.96-23.338667 48.64-27.733334 69.504-85.077333 45.013333-136.96 56.746667-194.986666 74.752 22.528 8.277333 46.72 16.341333 36.736 27.818666l-26.666667 26.581334c17.024-5.290667 34.346667-12.8 49.408-2.474667-1.450667 13.952-19.114667 21.034667-34.133333 29.141333 26.453333-9.557333 32.256-7.381333 39.253333-5.12 3.413333 16.682667-8.661333 25.685333-16.512 36.693334 66.773333-50.773333 153.856-90.794667 215.253333-107.562667 86.272-29.056 197.632-59.306667 227.882667-132.992 10.026667-40.362667 20.394667-81.28 30.165333-121.258667-4.736-1.493333-10.453333-2.688-14.933333-5.674666a27.946667 27.946667 0 0 1-9.984-12.757334c-10.752 2.816-18.816 1.322667-23.893333-3.754666-5.034667-4.992-7.168-12.544-8.661334-20.906667-8.704 1.792-15.530667 0.725333-20.053333-3.242667-4.864-4.352-7.253333-11.093333-8.448-18.901333l-0.256-1.749333 1.578667-0.597334a35.84 35.84 0 0 0 12.8-8.32 10.922667 10.922667 0 0 0 3.029333-9.6l-0.256-1.578666 1.28-0.682667c6.954667-3.968 14.762667-7.168 18.346667-11.904a11.818667 11.818667 0 0 0 2.133333-8.96 37.802667 37.802667 0 0 0-6.570667-15.36l-1.194666-1.706667 1.706666-1.152c5.034667-3.84 10.496-7.509333 13.226667-10.965333 1.365333-1.749333 1.962667-3.285333 1.92-4.693333 0-1.408-0.64-3.029333-2.773333-5.077334l-4.138667-4.010666 5.76 0.256c9.045333 0.384 16.896-0.256 22.997333-2.261334a21.333333 21.333333 0 0 0 12.629334-9.557333 19.413333 19.413333 0 0 1-0.213334-3.157333 19.413333 19.413333 0 0 1 19.413334-19.413334 19.413333 19.413333 0 0 1 19.413333 19.413334 19.413333 19.413333 0 0 1-0.938667 5.632c7.850667 0.682667 15.317333 0.341333 22.357334-2.730667l1.578666-0.512c10.069333-3.584 14.208 1.92 30.72-19.584-72.106667-93.482667-177.408-26.965333-212.394666 69.333333-8.96 24.618667-59.946667 24.618667-74.752-0.085333-58.453333-125.866667-235.989333-258.858667-387.072-307.882667z m31.232 46.549334c10.752-0.384 48.213333 19.328 55.893333 22.186666a1006.933333 1006.933333 0 0 1 66.858667 41.258667c21.546667 14.336 41.002667 28.288 54.357333 38.485333 6.656 5.12 11.818667 9.301333 14.976 12.16 1.578667 1.450667 2.730667 2.432 3.413333 3.498667a3.370667 3.370667 0 0 1 0.426667 0.938667 2.389333 2.389333 0 0 1-0.170667 1.92c-0.426667 0.853333-1.28 1.28-1.834666 1.28a3.2 3.2 0 0 1-1.152 0c-2.432 0.042667-8.618667-6.954667-21.162667-17.706667a999.552 999.552 0 0 0-117.674667-77.909333c-21.504-11.946667-40.789333-23.04-53.930666-26.112zM75.349333 285.482667c34.645333 0 80.64 15.573333 125.056 39.253333C244.906667 348.501333 287.573333 376.746667 308.181333 400.64c2.816 3.242667-0.810667 5.248-3.285333 2.901333-22.186667-21.162667-62.378667-51.456-106.581333-75.008-27.178667-14.336-91.648-42.88-122.965334-43.008z m-18.261333 41.258666c47.616 0.64 100.181333 19.029333 146.432 42.496 23.082667 11.733333 43.690667 24.32 59.562667 35.498667 15.872 11.221333 28.714667 22.314667 31.317333 28.032 2.645333 5.674667-0.810667 5.546667-3.669333 2.304a187.904 187.904 0 0 0-30.08-26.752 490.496 490.496 0 0 0-59.050667-35.157333c-41.088-20.565333-97.450667-39.509333-144.512-46.421334z m6.912 34.773334c2.816-0.128 5.674667 0 8.576 0.256 35.072 3.029333 73.344 15.616 108.074667 31.914666 46.378667 21.717333 86.826667 49.365333 103.850666 71.082667 1.493333 1.92-0.469333 5.674667-3.328 2.730667-18.261333-18.773333-56.32-48.298667-102.272-69.845334C139.946667 379.733333 81.493333 360.533333 39.68 364.416c8.021333-1.024 15.914667-2.602667 24.32-2.901333z m705.749333 0.554666c-15.573333 20.266667-22.613333 18.133333-29.909333 19.84 3.968 18.389333 14.933333 25.045333 25.002667 32.938667 86.186667-15.872 183.04-11.690667 259.413333-9.6l-254.421333-43.093333-0.085334-0.085334z m-34.261333 21.077334c-8.106667 3.285333-16.512 3.370667-24.917333 2.56a19.413333 19.413333 0 0 1-16.64 9.557333 19.413333 19.413333 0 0 1-17.664-11.434667 26.282667 26.282667 0 0 1-12.842667 8.96 66.986667 66.986667 0 0 1-20.992 2.304c0.853333 1.493333 2.304 2.858667 2.304 4.394667a11.733333 11.733333 0 0 1-2.986667 7.424c-3.114667 3.968-8.021333 7.338667-12.586666 10.666667a40.362667 40.362667 0 0 1 6.357333 15.402666 16.554667 16.554667 0 0 1-2.986667 12.117334c-4.522667 5.973333-12.245333 9.002667-18.688 12.586666a15.957333 15.957333 0 0 1-3.925333 11.392 37.802667 37.802667 0 0 1-12.672 8.405334c1.152 6.698667 3.157333 12.074667 6.570667 15.104 3.669333 3.242667 9.045333 4.437333 18.176 2.090666l2.346666-0.682666 0.426667 2.346666c1.450667 8.832 3.754667 16.469333 7.978667 20.650667 4.266667 4.224 10.368 5.76 21.418666 2.346667l2.090667-0.682667 0.64 2.133333a22.613333 22.613333 0 0 0 8.96 12.032c3.712 2.56 10.666667 4.778667 15.36 6.272 34.048-37.034667 65.066667-75.605333 80.384-122.026666-9.6-7.509333-21.674667-14.293333-26.112-33.92zM61.44 398.848a285.141333 285.141333 0 0 1 118.186667 27.306667c39.253333 18.346667 70.741333 40.064 84.266666 55.765333 3.157333 3.712-0.853333 5.205333-3.114666 3.157333a349.269333 349.269333 0 0 0-83.072-55.04c-38.570667-17.749333-93.696-27.562667-134.826667-30.634666 6.186667-0.426667 12.373333-0.597333 18.56-0.554667z m18.432 34.816c26.026667 0.853333 52.906667 6.613333 77.098667 15.018667 32.256 11.178667 60.586667 26.197333 74.496 41.813333 1.877333 2.133333-0.213333 5.546667-3.072 2.986667-14.890667-12.970667-41.045333-29.610667-72.832-40.661334-24.533333-8.32-68.949333-15.658667-96.853334-16.896 8.362667-0.896 12.501333-2.56 21.162667-2.261333z m38.101333 75.989333c2.133333 0 4.394667 0.170667 6.656 0.341334 18.090667 1.450667 37.802667 5.674667 57.258667 17.322666 1.834667 1.109333 2.090667 5.802667-2.133333 3.84-36.522667-17.152-56.618667-20.864-104.874667-13.141333 14.421333-4.821333 27.818667-8.490667 43.093333-8.362667z m17.749334 33.450667c12.8 0.170667 26.154667 2.645333 42.581333 9.216 1.877333 0.768 3.413333 5.376-1.408 4.010667-36.565333-10.368-49.792-13.994667-97.621333 4.437333 11.989333-9.770667 26.453333-15.658667 43.605333-17.194667 4.266667-0.384 8.533333-0.554667 12.8-0.469333z m62.250666 29.056c6.656 0 13.269333 0.384 19.626667 1.109333 2.261333 0.213333 2.346667 4.352-0.298667 4.266667a337.066667 337.066667 0 0 0-78.421333 4.864c-10.368 1.962667-18.005333 1.877333-59.904 19.626667 12.202667-9.984 33.92-19.242667 59.136-23.893334 18.944-3.413333 39.850667-6.058667 59.861333-5.973333z m57.002667 38.656c1.493333-0.213333 4.48 3.584 0.725333 4.266667-31.146667 5.802667-53.077333 11.434667-76.586666 19.413333-9.216 3.157333-24.704 8.832-52.992 25.088 11.050667-11.477333 27.946667-21.077333 51.754666-29.184a454.4 454.4 0 0 1 77.098667-19.584z m13.226667 21.674667c3.2-0.512 4.224 3.712 0.938666 4.352-51.925333 10.24-75.093333 23.722667-108.416 48.810666 21.461333-22.314667 55.296-44.8 107.52-53.162666z m25.429333 19.072a4.053333 4.053333 0 0 1 1.28 0c2.56 0.469333 2.944 3.797333-0.384 4.266666-37.205333 5.546667-63.104 23.68-96.298667 56.832 12.586667-21.077333 42.922667-52.992 95.402667-61.098666z m15.829333 16.682666c1.962667-0.213333 4.949333 3.114667 1.066667 4.266667-8.234667 2.389333-18.474667 6.4-28.586667 12.8-7.765333 5.034667-12.885333 8.618667-25.6 21.674667 4.778667-10.453333 12.757333-18.56 23.296-25.216 10.496-6.698667 21.632-12.501333 29.824-13.525334z" p-id="2474" fill="#008080"></path></svg>