<?xml version="1.0" standalone="no"?><!DOCTYPE svg PUBLIC "-//W3C//DTD SVG 1.1//EN" "http://www.w3.org/Graphics/SVG/1.1/DTD/svg11.dtd"><svg t="1590892464185" class="icon" viewBox="0 0 1024 1024" version="1.1" xmlns="http://www.w3.org/2000/svg" p-id="27354" width="24" height="24" xmlns:xlink="http://www.w3.org/1999/xlink"><defs><style type="text/css"></style></defs><path d="M901.688889 227.555556H122.311111A65.820444 65.820444 0 0 0 56.888889 292.977778v437.475555A65.934222 65.934222 0 0 0 122.311111 796.444444h778.808889a65.422222 65.422222 0 0 0 65.422222-65.422222v-438.044444A64.967111 64.967111 0 0 0 901.688889 227.555556zM568.888889 682.666667H455.111111V512L369.777778 621.226667 284.444444 512v170.666667H170.666667V341.333333h113.777777l85.333334 113.777778L455.111111 341.333333h113.777778v341.333334z m170.097778 28.444444L597.333333 512H682.666667V341.333333h113.777777v170.666667h85.333334z" fill="#EA7130" p-id="27355"></path></svg>