<?xml version="1.0" standalone="no"?><!DOCTYPE svg PUBLIC "-//W3C//DTD SVG 1.1//EN" "http://www.w3.org/Graphics/SVG/1.1/DTD/svg11.dtd"><svg t="1590892410118" class="icon" viewBox="0 0 1024 1024" version="1.1" xmlns="http://www.w3.org/2000/svg" p-id="25348" width="24" height="24" xmlns:xlink="http://www.w3.org/1999/xlink"><defs><style type="text/css"></style></defs><path d="M310.857143 422.4h-54.857143l-21.942857 131.657143h51.2s62.171429 0 64-85.942857c5.485714-20.114286-5.485714-40.228571-25.6-45.714286-3.657143-1.828571-9.142857-1.828571-12.8 0z m460.8 0h-54.857143L694.857143 552.228571h51.2s62.171429 0 64-85.942857c5.485714-20.114286-5.485714-40.228571-25.6-45.714285-3.657143 0-9.142857 0-12.8 1.828571zM512 201.142857C228.571429 201.142857 0 340.114286 0 512s228.571429 310.857143 512 310.857143 512-138.971429 512-310.857143-228.571429-310.857143-512-310.857143zM283.428571 601.6h-54.857142l-16.457143 82.285714H153.6l53.028571-310.857143H329.142857c47.542857 0 96.914286 40.228571 74.971429 129.828572-9.142857 58.514286-62.171429 102.4-120.685715 98.742857z m261.485715 0s14.628571-73.142857 20.114285-122.514286c1.828571-20.114286 12.8-54.857143-16.457142-54.857143h-60.342858L457.142857 601.6h-58.514286l54.857143-312.685714H512l-14.628571 84.114285h60.342857c32.914286-5.485714 64 18.285714 69.485714 51.2 1.828571 7.314286 0 12.8 0 20.114286-9.142857 76.8-27.428571 160.914286-27.428571 160.914286l-54.857143-3.657143z m321.828571-98.742857c-9.142857 58.514286-62.171429 102.4-122.514286 98.742857h-54.857142l-16.457143 82.285714h-58.514286l53.028571-310.857143h122.514286c47.542857 0 96.914286 40.228571 76.8 129.828572z" fill="#655AB6" p-id="25349"></path></svg>