<?xml version="1.0" standalone="no"?><!DOCTYPE svg PUBLIC "-//W3C//DTD SVG 1.1//EN" "http://www.w3.org/Graphics/SVG/1.1/DTD/svg11.dtd"><svg t="1590892936941" class="icon" viewBox="0 0 1024 1024" version="1.1" xmlns="http://www.w3.org/2000/svg" p-id="51565" width="24" height="24" xmlns:xlink="http://www.w3.org/1999/xlink"><defs><style type="text/css"></style></defs><path d="M989.0992 131.296c24.224 0 39.392 19.744 33.792 44.16l-156.128 681.856c-5.536 24.416-29.728 44.16-53.984 44.16H34.9552c-24.224 0-39.392-19.744-33.792-44.16L157.2912 175.456c5.536-24.416 29.728-44.16 53.984-44.16h777.824z m-357.344 398.72c10.72-16.8 9.696-38.624-3.84-53.024l-238.688-253.92c-16.224-17.28-44.256-17.376-62.56-0.16s-19.968 45.088-3.744 62.336l198.912 211.616v4.704l-316.576 229.248c-19.2 13.952-22.752 41.696-7.968 61.984s42.272 25.472 61.44 11.52l351.104-252.128c11.936-8.416 18.688-15.616 21.92-22.176z m-119.296 187.68h-0.256c-21.792 0-39.488 17.6-39.584 39.36 0 21.76 17.824 39.392 39.84 39.392h189.408c21.792 0 39.488-17.6 39.584-39.36a39.616 39.616 0 0 0-39.584-39.392h-189.376z" fill="#5391FE" p-id="51566"></path></svg>