<?xml version="1.0" standalone="no"?><!DOCTYPE svg PUBLIC "-//W3C//DTD SVG 1.1//EN" "http://www.w3.org/Graphics/SVG/1.1/DTD/svg11.dtd"><svg t="1590892561995" class="icon" viewBox="0 0 1024 1024" version="1.1" xmlns="http://www.w3.org/2000/svg" p-id="30940" width="24" height="24" xmlns:xlink="http://www.w3.org/1999/xlink"><defs><style type="text/css"></style></defs><path d="M660.144 437.24c-103.36 66.608-205.776 132.616-310.896 200.344l469.72 64.128-158.824-264.472z m203.272-294.744c-13.88 20.832-27.784 41.656-41.64 62.504A370057.44 370057.44 0 0 0 679.048 419.84c-2.648 4-6.08 7.168-2.352 13.312 45.952 75.864 91.528 151.968 137.216 227.984 7.208 12.008 14.504 23.968 23.832 35.488l27.704-553.528-2.032-0.6zM236.232 379.04c2.152 2.04 7.52 3.216 10.008 1.992 44.072-21.664 88.424-42.84 131.536-66.288 14.048-7.632 24.848-21.336 36.968-32.44a78258.344 78258.344 0 0 0 120.168-110.496c2.456-2.264 5.344-4.448 6.816-7.304 14.376-28.104 28.496-56.336 43.128-85.4-17.448-6.536-33.984-12.96-50.72-18.8-2.272-0.792-5.84 0.784-8.32 2.16-38.744 21.648-78.216 42.136-115.736 65.744-18.776 11.808-34.072 29.208-50.696 44.376-26.776 24.448-53.536 48.952-79.936 73.832a137.12 137.12 0 0 0-18.84 22.08c-18.064 26.288-35.568 52.952-53.896 80.384 10.256 10.608 19.56 20.736 29.52 30.16z m161.064-35.944c-21.912 92.616-43.72 184.704-66.232 279.824L642.272 422.4l-244.976-79.304z m174.696-155.528l89.76 218.336c58.592-88.008 116.016-174.28 174.744-262.52l-264.504 44.184zM400.976 324.152l240.096 77.944c-30.088-73.304-59.144-144.04-88.808-216.28L400.976 324.152zM239.552 433.048L155.52 633.92l160.04-4.728-76.008-196.144z m77.912 149.56l1.984-0.432c19.208-79.904 38.704-159.256 58.328-242.272l-128.4 66.728c21.88 56.896 45.224 116.896 68.088 175.976z m486.736-452.176c-25.56-6.768-51.096-13.568-76.68-20.288-36.744-9.656-73.52-19.208-110.248-28.96-4.584-1.216-7.912-2.008-10.608 3.52-12.976 26.592-26.368 52.992-39.552 79.48-0.408 0.824-0.328 1.896-0.64 3.936l237.68-36.016 0.048-1.672zM655.944 69.936l208.296 57.624-34.416-98.064-173.568 38.488-0.312 1.952zM719 704.8l-170.888-23.328c-70.984-9.688-141.84-20.352-212.984-28.552-25.8-2.968-52.288-0.232-78.448 0.208-21.496 0.368-42.992 1.184-64.48 1.864-2.216 0.064-4.424 0.512-6.624 2.888 177.68 16.432 355.376 32.856 533.048 49.296l0.376-2.376zM159.024 572.608c22.912-53.128 45.696-106.296 68.688-159.376 2.304-5.336 2.136-8.944-2.368-13.224-9.624-9.16-18.552-19.024-29.072-29.952l-41.928 206.968 1.544 0.736c1.064-1.712 2.352-3.312 3.136-5.152zM610.32 55.912c38.616-9.968 77.792-17.744 116.736-26.44 2.512-0.568 4.976-1.4 7.456-2.112l-0.376-1.904-167.328 22.504c15.72 6.872 27.824 12 43.512 7.952zM247.8 875.376v68.376h-37.792V765.536h51.928c24.208 0 42.128 4.408 53.752 13.224s17.44 22.208 17.44 40.16c0 10.488-2.888 19.816-8.664 27.976-5.768 8.168-13.928 14.576-24.504 19.208l52.424 77.64h-41.936l-42.536-68.376h-20.112z m0-30.72h12.192c11.936 0 20.76-2 26.448-5.976 5.68-3.984 8.528-10.24 8.528-18.768 0-8.456-2.904-14.464-8.72-18.04-5.808-3.576-14.808-5.368-26.992-5.368h-11.464v48.152z m220.624 99.096l-4.992-17.432h-1.952c-3.984 6.344-9.632 11.232-16.936 14.688-7.32 3.456-15.656 5.176-24.992 5.176-16.016 0-28.08-4.28-36.208-12.856s-12.184-20.904-12.184-36.992v-88.864h37.176v79.6c0 9.832 1.752 17.208 5.248 22.128 3.488 4.92 9.048 7.368 16.688 7.368 10.408 0 17.92-3.48 22.552-10.416 4.632-6.952 6.952-18.464 6.952-34.552v-64.12h37.176v136.28h-28.528z m143.352-138.848c16.088 0 28.688 6.288 37.8 18.84 9.096 12.552 13.64 29.76 13.64 51.624 0 22.504-4.696 39.936-14.072 52.28-9.392 12.36-22.168 18.528-38.344 18.528-16.008 0-28.56-5.816-37.664-17.44h-2.56l-6.208 15h-28.408V754.08h37.176v44.128c0 5.608-0.496 14.584-1.472 26.944h1.472c8.688-13.488 21.576-20.248 38.64-20.248z m-11.952 29.752c-9.176 0-15.88 2.824-20.104 8.472-4.224 5.656-6.432 14.976-6.584 27.984v4.016c0 14.632 2.168 25.112 6.512 31.456 4.352 6.336 11.24 9.504 20.672 9.504 7.632 0 13.704-3.52 18.216-10.544s6.768-17.248 6.768-30.656c0-13.408-2.28-23.472-6.832-30.176-4.544-6.704-10.76-10.056-18.648-10.056z m72.168-27.184h40.712l25.72 76.672c2.192 6.664 3.704 14.544 4.504 23.648h0.736c0.888-8.368 2.632-16.256 5.232-23.648l25.232-76.672h39.856l-57.656 153.712c-5.28 14.216-12.816 24.864-22.6 31.936-9.8 7.072-21.232 10.6-34.32 10.6-6.424 0-12.72-0.688-18.888-2.072v-29.496a64.032 64.032 0 0 0 14.624 1.576c6.576 0 12.328-2.008 17.248-6.032 4.92-4.016 8.76-10.088 11.512-18.216l2.192-6.712-54.104-135.296z" fill="#D91404" p-id="30941"></path></svg>