<?xml version="1.0" standalone="no"?><!DOCTYPE svg PUBLIC "-//W3C//DTD SVG 1.1//EN" "http://www.w3.org/Graphics/SVG/1.1/DTD/svg11.dtd"><svg t="1590892691098" class="icon" viewBox="0 0 1024 1024" version="1.1" xmlns="http://www.w3.org/2000/svg" p-id="37722" width="24" height="24" xmlns:xlink="http://www.w3.org/1999/xlink"><defs><style type="text/css"></style></defs><path d="M64 512v448h896V64H64v448z" fill="#00A23C" p-id="37723"></path><path d="M786.048 476.288a111.52 111.52 0 0 1 56.032 32.288 147.552 147.552 0 0 1 21.472 28.8c0.288 1.152-38.688 27.296-62.304 41.952-0.864 0.576-4.256-3.2-8.096-8.832a50.784 50.784 0 0 0-42.112-25.312c-27.168-1.856-44.8 12.384-44.512 36.128a32.864 32.864 0 0 0 3.84 16.768c5.984 12.384 17.056 19.776 51.904 34.848 64 27.584 91.584 45.792 108.8 71.68a130.016 130.016 0 0 1 10.368 109.216 120.096 120.096 0 0 1-99.2 70.976 274.688 274.688 0 0 1-68.256-0.704 164.64 164.64 0 0 1-91.168-47.488 158.304 158.304 0 0 1-23.328-34.56 66.944 66.944 0 0 1 8.256-5.248c3.968-2.272 19.2-10.944 33.28-19.2l25.6-14.944 5.376 7.904a120.288 120.288 0 0 0 34.144 32.64 83.2 83.2 0 0 0 87.168-4.416 38.944 38.944 0 0 0 4.992-49.632c-6.976-9.952-21.184-18.336-61.568-35.84a221.76 221.76 0 0 1-84.352-51.904 118.144 118.144 0 0 1-24.608-44.8 179.392 179.392 0 0 1-1.568-57.184 109.216 109.216 0 0 1 91.872-85.056 226.944 226.944 0 0 1 67.968 1.92z m-210.336 37.408L576 550.4h-116.608v331.392h-82.496V550.4H260.256v-35.968a352.576 352.576 0 0 1 0.992-36.992c0.416-0.576 71.392-0.864 157.44-0.704l156.576 0.416z" fill="#FFFFFF" p-id="37724"></path></svg>