<?xml version="1.0" standalone="no"?><!DOCTYPE svg PUBLIC "-//W3C//DTD SVG 1.1//EN" "http://www.w3.org/Graphics/SVG/1.1/DTD/svg11.dtd"><svg t="1590893785763" class="icon" viewBox="0 0 1024 1024" version="1.1" xmlns="http://www.w3.org/2000/svg" p-id="71537" width="24" height="24" xmlns:xlink="http://www.w3.org/1999/xlink"><defs><style type="text/css"></style></defs><path d="M1024.096 511.392h-1.152l-184.224-184.224 183.584-188.32V62.336l-27.68-27.648H644.832l-28.16 25.824v44.576L512.736 1.152V0L512.096 0.608 511.488 0v1.152l-55.04 55.072-22.944-23.008H86.912l-27.232 29.536v80.416l26.272 26.272h30.72v226.56L1.216 511.424h-1.152l0.608 0.544-0.608 0.608h1.152l115.456 115.456v275.936l38.688 22.304h99.072l79.232-81.248 177.76 177.76v1.184l0.64-0.608 0.608 0.608v-1.184l107.104-107.04h20.704a11.296 11.296 0 0 0 10.656-7.648l6.24-18.176a11.296 11.296 0 0 0-1.568-10.208l62.368-62.368-26.112 83.712a11.36 11.36 0 0 0 10.88 14.688h77.824a11.328 11.328 0 0 0 10.368-6.944l7.04-16.8a11.616 11.616 0 0 0-0.16-8.672 11.04 11.04 0 0 0-6.24-6.048 12.32 12.32 0 0 0-4.128-0.864h-3.2l35.84-112.8h52.576l-43.36 137.44a11.36 11.36 0 0 0 10.88 14.688h85.408a11.296 11.296 0 0 0 10.592-7.264l7.008-18.272a11.36 11.36 0 0 0-10.624-15.296h-6.176l48.256-156.704a11.2 11.2 0 0 0-1.664-10.24l-16-21.504-0.128-0.224a11.392 11.392 0 0 0-8.928-4.352h-61.28a11.296 11.296 0 0 0-8.096 3.456l-17.056 18.72h-26.624l-1.792-1.952 189.664-189.664h1.184l-0.608-0.48 0.608-0.608zM419.84 901.92l67.36-192.384h-21.376l12.672-12.96h70.784l-66.688 194.336h26.592l-3.36 11.008h-85.984z m157.664-320.672l6.4 6.432-11.488 39.328-9.6 9.632h-41.344l-7.712-7.712 13.28-37.152 12.288-10.528h38.176zM238.592 888.704H165.504l-11.168-6.4V131.872H101.6l-4.256-4.256V77.44l6.112-6.56h314.496l9.088 9.12v47.264l-6.048 7.392h-46.048v370.688L750.72 134.656h-88.992l-7.456-8.032V76.992l5.152-4.736h319.584l5.632 5.664v45.664l-430.72 441.728h-15.904c-0.64-0.032-1.184 0-1.792 0.032l-0.864 0.128a10.976 10.976 0 0 0-5.088 2.56l-14.624 12.576-0.16 0.128a11.328 11.328 0 0 0-3.104 4.736l-12.64 35.424-261.088 267.776z m630.112-168.608l20.224-22.144h56.928l13.184 17.696-53.984 175.232h21.024l-3.424 8.928h-76.064l47.968-152.064h-85.984l-45.952 144.672h18.08l-3.104 7.424h-68.48l47.232-151.392h-89.44l-45.312 142.464h18.592l-3.072 8.928h-70.88l64.608-190.304h-24.992l3.872-11.552h70.4l22.144 22.912h38.656l20.96-23.648h45.28l20.864 22.816h40.672z" fill="#019733" p-id="71538"></path></svg>