<?xml version="1.0" standalone="no"?><!DOCTYPE svg PUBLIC "-//W3C//DTD SVG 1.1//EN" "http://www.w3.org/Graphics/SVG/1.1/DTD/svg11.dtd"><svg t="1590892879499" class="icon" viewBox="0 0 1024 1024" version="1.1" xmlns="http://www.w3.org/2000/svg" p-id="50180" width="24" height="24" xmlns:xlink="http://www.w3.org/1999/xlink"><defs><style type="text/css"></style></defs><path d="M861.6 61.8h-700c-55 0-100 45-100 100v700c0 55 45 100 100 100h700c55 0 100-45 100-100v-700c0-55-45-100-100-100zM406 417.1l-94.7 94.7 94.7 94.5V681L236.6 511.8 406 342.4v74.7z m82.1 332.1l-51.7-10.6L535 274.3l51.7 10.6-98.6 464.3z m129-68.3v-74.7l94.7-94.5-94.7-94.7v-74.7l169.4 169.4-169.4 169.2z" fill="#1AB6D9" p-id="50181"></path></svg>