<?xml version="1.0" standalone="no"?><!DOCTYPE svg PUBLIC "-//W3C//DTD SVG 1.1//EN" "http://www.w3.org/Graphics/SVG/1.1/DTD/svg11.dtd"><svg t="1590855300278" class="icon" viewBox="0 0 1024 1024" version="1.1" xmlns="http://www.w3.org/2000/svg" p-id="6213" width="24" height="24" xmlns:xlink="http://www.w3.org/1999/xlink"><defs><style type="text/css"></style></defs><path d="M154.048 895.36l298.24-368.32L128 129.92c8.32-0.64 13.312-1.408 18.432-1.408 49.984 0 99.968 0.512 150.016-0.32a35.392 35.392 0 0 1 30.848 15.36c67.328 83.776 135.104 166.656 202.88 249.664 4.864 5.888 9.92 11.392 15.488 17.728 72-87.936 143.424-174.592 214.144-262.144 11.52-14.4 22.976-21.184 39.68-20.8 52.672 1.28 105.344 0.448 160.512 0.448-1.92 4.736-4.288 9.152-6.912 13.312-109.44 134.336-218.88 268.544-328.512 402.752-90.88 111.168-182.208 221.824-272.832 333.376a41.664 41.664 0 0 1-36.288 17.984c-47.872-1.088-95.808-0.32-143.616-0.32l-17.792-0.192z" fill="#F09020" p-id="6214"></path></svg>